<svg width="250" height="250" viewBox="0 0 250 250" fill="none" xmlns="http://www.w3.org/2000/svg">
<rect width="250" height="250" fill="white"/>
<path d="M249.751 124.932C249.751 118.342 247.144 112.302 242.615 107.634L219.832 84.8444C219.42 84.8444 219.146 84.8444 218.597 84.8444C217.499 84.8444 216.264 84.7071 214.891 84.4325C210.088 83.7461 205.147 83.1969 200.069 82.7851C194.991 82.3732 189.227 82.0986 182.776 82.0986C176.6 82.0986 171.934 83.0596 168.914 85.119C165.758 87.1783 164.385 90.3359 164.385 94.8663C164.385 97.0629 164.66 98.985 165.346 100.358C166.032 101.731 166.993 102.966 168.503 103.927C170.012 104.888 171.796 105.712 174.404 106.398C176.737 107.085 179.757 107.771 183.325 108.458C189.364 109.693 195.403 111.204 201.441 112.988C207.343 114.636 212.695 117.107 217.362 120.264C222.028 123.285 225.871 127.541 228.753 132.62C231.498 137.563 233.008 144.015 233.145 151.841L242.752 142.23C247.144 137.563 249.751 131.522 249.751 124.932Z" fill="#1E30F4"/>
<path d="M168.777 196.87C165.346 196.595 161.777 196.321 157.934 195.772C154.092 195.222 150.249 194.673 146.406 193.712C142.563 192.751 138.857 191.79 135.426 190.555C131.858 189.182 129.936 187.809 129.525 186.573C129.113 185.2 129.113 183.69 129.525 181.631L132.132 169.412C132.819 166.529 133.642 164.882 134.74 164.745C135.701 164.47 137.622 164.607 140.504 165.019C143.112 165.294 145.857 165.568 149.013 165.98C152.17 166.392 155.327 166.667 158.621 166.941C161.914 167.216 165.208 167.49 168.365 167.765C171.659 167.902 174.815 168.04 177.698 168.04C184.972 168.04 190.187 166.941 193.481 164.607C196.775 162.273 198.559 158.979 198.559 154.448C198.559 151.84 198.147 149.78 197.461 148.133C196.775 146.485 195.539 145.113 193.892 144.014C192.246 142.916 190.187 141.955 187.716 141.131C185.246 140.308 182.227 139.621 178.658 138.935C172.62 137.699 166.581 136.189 160.542 134.404C154.64 132.619 149.288 130.148 144.622 127.128C139.955 123.97 136.112 119.989 133.23 114.909C130.348 109.967 128.838 103.652 128.838 95.9638C128.838 89.0994 130.074 82.9215 132.407 77.5673C134.877 72.2131 138.308 67.6826 142.7 63.9758C147.092 60.4064 152.582 57.6606 158.895 55.7386C165.346 53.8166 172.345 52.8556 180.168 52.8556C182.089 52.8556 184.56 52.8556 187.716 52.9929L142.151 7.13893C137.485 2.60846 131.309 0 124.858 0C118.271 0 112.095 2.60846 107.566 7.27622L7.10241 107.633C-2.36747 117.243 -2.36747 132.757 7.10241 142.23L30.8458 165.98C31.532 165.706 32.6299 165.706 34.2769 165.98C37.9825 166.392 41.6881 166.804 45.2564 167.079C48.8248 167.353 52.2559 167.49 55.2753 167.49C59.1182 167.49 62.2748 167.216 64.608 166.392C67.0784 165.568 68.8625 164.47 70.235 163.097C71.6074 161.724 72.4309 159.94 72.9799 157.88C73.3916 155.821 73.6661 153.624 73.6661 151.153V58.8962C73.6661 57.5233 73.9406 56.2878 74.6268 55.464C75.313 54.503 76.5482 54.0912 78.3324 54.0912H102.899C104.958 54.0912 106.193 54.6403 106.742 55.7386C107.291 56.8369 107.566 57.9352 107.566 59.0335C107.566 79.4893 107.566 98.0231 107.566 114.36C107.566 130.697 107.566 145.25 107.291 157.88C107.291 170.373 103.585 179.984 96.1742 186.985C88.9003 193.85 77.509 197.282 62.0003 197.419L107.428 242.861C112.095 247.529 118.133 250 124.721 250C131.309 250 137.348 247.392 142.014 242.861L188.128 196.733C184.56 197.144 180.854 197.419 177.149 197.419C174.953 197.144 172.208 197.007 168.777 196.87Z" fill="#1E30F4"/>
</svg>
