{
    "asset" : {
        "generator" : "Khronos glTF Blender I/O v1.3.48",
        "version" : "2.0"
    },
    "scene" : 0,
    "scenes" : [
        {
            "name" : "Scene",
            "nodes" : [
                0,
                1
            ]
        }
    ],
    "nodes" : [
        {
            "mesh" : 0,
            "name" : "logo",
            "rotation" : [
                0.7071068286895752,
                0,
                0,
                0.7071067094802856
            ]
        },
        {
            "name" : "Point",
            "translation" : [
                0.9227806925773621,
                1.778434157371521,
                -0.8891410827636719
            ]
        }
    ],
    "materials" : [
        {
            "doubleSided" : true,
            "emissiveFactor" : [
                0,
                0,
                0
            ],
            "name" : "Material_#22",
            "pbrMetallicRoughness" : {
                "baseColorTexture" : {
                    "index" : 0,
                    "texCoord" : 0
                },
                "metallicFactor" : 0,
                "roughnessFactor" : 0.2755137085914612
            }
        },
        {
            "doubleSided" : true,
            "emissiveFactor" : [
                0,
                0,
                0
            ],
            "name" : "Material.002",
            "pbrMetallicRoughness" : {
                "baseColorTexture" : {
                    "index" : 1,
                    "texCoord" : 0
                },
                "metallicFactor" : 1,
                "roughnessFactor" : 0
            }
        }
    ],
    "meshes" : [
        {
            "name" : "logo",
            "primitives" : [
                {
                    "attributes" : {
                        "POSITION" : 0,
                        "NORMAL" : 1,
                        "TEXCOORD_0" : 2
                    },
                    "indices" : 3,
                    "material" : 0
                },
                {
                    "attributes" : {
                        "POSITION" : 4,
                        "NORMAL" : 5,
                        "TEXCOORD_0" : 6
                    },
                    "indices" : 7,
                    "material" : 1
                }
            ]
        }
    ],
    "textures" : [
        {
            "source" : 0
        },
        {
            "source" : 1
        }
    ],
    "images" : [
        {
            "mimeType" : "image/jpeg",
            "name" : "iStock-1044136070",
            "uri" : "iStock-1044136070.jpg"
        },
        {
            "mimeType" : "image/jpeg",
            "name" : "iStock-1055113168",
            "uri" : "iStock-1055113168.jpg"
        }
    ],
    "accessors" : [
        {
            "bufferView" : 0,
            "componentType" : 5126,
            "count" : 7660,
            "max" : [
                1.5201681852340698,
                1.2286900281906128,
                0.00031900001340545714
            ],
            "min" : [
                -1.3739030361175537,
                -1.6653820276260376,
                -0.21043699979782104
            ],
            "type" : "VEC3"
        },
        {
            "bufferView" : 1,
            "componentType" : 5126,
            "count" : 7660,
            "type" : "VEC3"
        },
        {
            "bufferView" : 2,
            "componentType" : 5126,
            "count" : 7660,
            "type" : "VEC2"
        },
        {
            "bufferView" : 3,
            "componentType" : 5123,
            "count" : 43656,
            "type" : "SCALAR"
        },
        {
            "bufferView" : 4,
            "componentType" : 5126,
            "count" : 3455,
            "max" : [
                1.5201681852340698,
                1.2286900281906128,
                -0.009428000077605247
            ],
            "min" : [
                -1.3739030361175537,
                -1.6653820276260376,
                -0.20800000429153442
            ],
            "type" : "VEC3"
        },
        {
            "bufferView" : 5,
            "componentType" : 5126,
            "count" : 3455,
            "type" : "VEC3"
        },
        {
            "bufferView" : 6,
            "componentType" : 5126,
            "count" : 3455,
            "type" : "VEC2"
        },
        {
            "bufferView" : 7,
            "componentType" : 5123,
            "count" : 15960,
            "type" : "SCALAR"
        }
    ],
    "bufferViews" : [
        {
            "buffer" : 0,
            "byteLength" : 91920,
            "byteOffset" : 0
        },
        {
            "buffer" : 0,
            "byteLength" : 91920,
            "byteOffset" : 91920
        },
        {
            "buffer" : 0,
            "byteLength" : 61280,
            "byteOffset" : 183840
        },
        {
            "buffer" : 0,
            "byteLength" : 87312,
            "byteOffset" : 245120
        },
        {
            "buffer" : 0,
            "byteLength" : 41460,
            "byteOffset" : 332432
        },
        {
            "buffer" : 0,
            "byteLength" : 41460,
            "byteOffset" : 373892
        },
        {
            "buffer" : 0,
            "byteLength" : 27640,
            "byteOffset" : 415352
        },
        {
            "buffer" : 0,
            "byteLength" : 31920,
            "byteOffset" : 442992
        }
    ],
    "buffers" : [
        {
            "byteLength" : 474912,
            "uri" : "logo.bin"
        }
    ]
}
