<svg width="70" height="70" viewBox="0 0 70 70" fill="none" xmlns="http://www.w3.org/2000/svg">
<path d="M67.2443 30.8605L67.2448 30.861C68.371 31.9871 68.9904 33.4274 68.9904 35.0385C68.9904 36.5867 68.3994 38.0611 67.2838 39.177C67.2836 39.1772 67.2834 39.1773 67.2833 39.1775L39.1401 67.2824C39.1385 67.284 39.1369 67.2855 39.1353 67.2871C38.004 68.3828 36.5595 69 34.9904 69C33.4064 69 31.9694 68.4109 30.8513 67.2929L2.69749 39.139C0.43784 36.8794 0.429701 33.1646 2.69989 30.8586L30.8509 2.74605L30.8564 2.74054L30.8618 2.73494C31.9411 1.62297 33.4122 1 34.9904 1C36.5238 1 38.0056 1.6191 39.1347 2.7124L67.2443 30.8605Z" stroke="#1E30F4" stroke-width="2"/>
<path d="M35.7071 22.2929C35.3166 21.9024 34.6834 21.9024 34.2929 22.2929L27.9289 28.6569C27.5384 29.0474 27.5384 29.6805 27.9289 30.0711C28.3195 30.4616 28.9526 30.4616 29.3431 30.0711L35 24.4142L40.6569 30.0711C41.0474 30.4616 41.6805 30.4616 42.0711 30.0711C42.4616 29.6805 42.4616 29.0474 42.0711 28.6569L35.7071 22.2929ZM36 47L36 23L34 23L34 47L36 47Z" fill="#1E30F4"/>
</svg>
