<svg width="29" height="71" viewBox="0 0 29 71" fill="none" xmlns="http://www.w3.org/2000/svg">
<path d="M14.6464 70.3536C14.8417 70.5488 15.1583 70.5488 15.3536 70.3536L18.5355 67.1716C18.7308 66.9763 18.7308 66.6597 18.5355 66.4645C18.3403 66.2692 18.0237 66.2692 17.8284 66.4645L15 69.2929L12.1716 66.4645C11.9763 66.2692 11.6597 66.2692 11.4645 66.4645C11.2692 66.6597 11.2692 66.9763 11.4645 67.1716L14.6464 70.3536ZM14.5 50L14.5 70L15.5 70L15.5 50L14.5 50Z" fill="#1E30F4"/>
<rect x="0.5" y="0.5" width="28" height="44" rx="14" stroke="#1E30F4"/>
<path d="M15 11V19" stroke="#1E30F4" stroke-linecap="round"/>
</svg>
