{
    "asset" : {
        "generator" : "Khronos glTF Blender I/O v1.3.48",
        "version" : "2.0"
    },
    "scene" : 0,
    "scenes" : [
        {
            "name" : "Scene",
            "nodes" : [
                0
            ]
        }
    ],
    "nodes" : [
        {
            "mesh" : 0,
            "name" : "006",
            "rotation" : [
                -0.7163137197494507,
                0.5423815250396729,
                0.23714011907577515,
                0.36943402886390686
            ],
            "scale" : [
                0.0007356480346061289,
                0.0007356480346061289,
                0.0007356480346061289
            ],
            "translation" : [
                40.92047882080078,
                0,
                -4.945455551147461
            ]
        }
    ],
    "materials" : [
        {
            "doubleSided" : true,
            "emissiveFactor" : [
                0,
                0,
                0
            ],
            "name" : "Material #2797",
            "pbrMetallicRoughness" : {
                "baseColorTexture" : {
                    "index" : 0,
                    "texCoord" : 0
                },
                "metallicFactor" : 0,
                "roughnessFactor" : 0.5527864098548889
            }
        }
    ],
    "meshes" : [
        {
            "name" : "Mesh.005",
            "primitives" : [
                {
                    "attributes" : {
                        "POSITION" : 0,
                        "NORMAL" : 1,
                        "TEXCOORD_0" : 2
                    },
                    "indices" : 3,
                    "material" : 0
                }
            ]
        }
    ],
    "textures" : [
        {
            "source" : 0
        }
    ],
    "images" : [
        {
            "mimeType" : "image/jpeg",
            "name" : "iStock-939020316",
            "uri" : "iStock-939020316.jpg"
        }
    ],
    "accessors" : [
        {
            "bufferView" : 0,
            "componentType" : 5126,
            "count" : 13984,
            "max" : [
                39897.984375,
                122541.3046875,
                39919.62109375
            ],
            "min" : [
                -39913.4375,
                -4948.75439453125,
                -39907.6484375
            ],
            "type" : "VEC3"
        },
        {
            "bufferView" : 1,
            "componentType" : 5126,
            "count" : 13984,
            "type" : "VEC3"
        },
        {
            "bufferView" : 2,
            "componentType" : 5126,
            "count" : 13984,
            "type" : "VEC2"
        },
        {
            "bufferView" : 3,
            "componentType" : 5123,
            "count" : 82236,
            "type" : "SCALAR"
        }
    ],
    "bufferViews" : [
        {
            "buffer" : 0,
            "byteLength" : 167808,
            "byteOffset" : 0
        },
        {
            "buffer" : 0,
            "byteLength" : 167808,
            "byteOffset" : 167808
        },
        {
            "buffer" : 0,
            "byteLength" : 111872,
            "byteOffset" : 335616
        },
        {
            "buffer" : 0,
            "byteLength" : 164472,
            "byteOffset" : 447488
        }
    ],
    "buffers" : [
        {
            "byteLength" : 611960,
            "uri" : "Prim_06.bin"
        }
    ]
}
