{
    "asset" : {
        "generator" : "Khronos glTF Blender I/O v1.3.48",
        "version" : "2.0"
    },
    "scene" : 0,
    "scenes" : [
        {
            "name" : "Scene",
            "nodes" : [
                0
            ]
        }
    ],
    "nodes" : [
        {
            "mesh" : 0,
            "name" : "Hedra001",
            "rotation" : [
                0.3420201241970062,
                0,
                0,
                0.9396927356719971
            ],
            "scale" : [
                0.0017546500312164426,
                0.0017546499148011208,
                0.0017546499148011208
            ],
            "translation" : [
                -3.6925694942474365,
                0,
                -24.324787139892578
            ]
        }
    ],
    "materials" : [
        {
            "doubleSided" : true,
            "emissiveFactor" : [
                0,
                0,
                0
            ],
            "name" : "Material #2805",
            "pbrMetallicRoughness" : {
                "baseColorTexture" : {
                    "index" : 0,
                    "texCoord" : 0
                },
                "metallicFactor" : 0,
                "roughnessFactor" : 0.420968234539032
            }
        }
    ],
    "meshes" : [
        {
            "name" : "Mesh",
            "primitives" : [
                {
                    "attributes" : {
                        "POSITION" : 0,
                        "NORMAL" : 1,
                        "TEXCOORD_0" : 2
                    },
                    "indices" : 3,
                    "material" : 0
                }
            ]
        }
    ],
    "textures" : [
        {
            "source" : 0
        }
    ],
    "images" : [
        {
            "mimeType" : "image/jpeg",
            "name" : "Indieground_Holographic_Textures_04",
            "uri" : "Indieground_Holographic_Textures_04.jpg"
        }
    ],
    "accessors" : [
        {
            "bufferView" : 0,
            "componentType" : 5126,
            "count" : 2772,
            "max" : [
                24559.03515625,
                24559.03515625,
                24559.03515625
            ],
            "min" : [
                -24559.03515625,
                -24559.03515625,
                -24559.03515625
            ],
            "type" : "VEC3"
        },
        {
            "bufferView" : 1,
            "componentType" : 5126,
            "count" : 2772,
            "type" : "VEC3"
        },
        {
            "bufferView" : 2,
            "componentType" : 5126,
            "count" : 2772,
            "type" : "VEC2"
        },
        {
            "bufferView" : 3,
            "componentType" : 5123,
            "count" : 9000,
            "type" : "SCALAR"
        }
    ],
    "bufferViews" : [
        {
            "buffer" : 0,
            "byteLength" : 33264,
            "byteOffset" : 0
        },
        {
            "buffer" : 0,
            "byteLength" : 33264,
            "byteOffset" : 33264
        },
        {
            "buffer" : 0,
            "byteLength" : 22176,
            "byteOffset" : 66528
        },
        {
            "buffer" : 0,
            "byteLength" : 18000,
            "byteOffset" : 88704
        }
    ],
    "buffers" : [
        {
            "byteLength" : 106704,
            "uri" : "Prim_01.bin"
        }
    ]
}
