{
    "asset" : {
        "generator" : "Khronos glTF Blender I/O v1.3.48",
        "version" : "2.0"
    },
    "scene" : 0,
    "scenes" : [
        {
            "name" : "Scene",
            "nodes" : [
                0
            ]
        }
    ],
    "nodes" : [
        {
            "mesh" : 0,
            "name" : "Cylinder005"
        }
    ],
    "materials" : [
        {
            "doubleSided" : true,
            "emissiveFactor" : [
                0,
                0,
                0
            ],
            "name" : "Material #22.001",
            "pbrMetallicRoughness" : {
                "baseColorTexture" : {
                    "index" : 0,
                    "texCoord" : 0
                },
                "metallicFactor" : 0,
                "roughnessFactor" : 0.5527864098548889
            }
        },
        {
            "doubleSided" : true,
            "emissiveFactor" : [
                0,
                0,
                0
            ],
            "name" : "Material.002",
            "pbrMetallicRoughness" : {
                "baseColorFactor" : [
                    0.1618942767381668,
                    0.1618942767381668,
                    0.1618942767381668,
                    1
                ],
                "metallicFactor" : 0.4727272689342499,
                "roughnessFactor" : 0.5
            }
        }
    ],
    "meshes" : [
        {
            "name" : "Mesh.001",
            "primitives" : [
                {
                    "attributes" : {
                        "POSITION" : 0,
                        "NORMAL" : 1,
                        "TEXCOORD_0" : 2
                    },
                    "indices" : 3,
                    "material" : 0
                },
                {
                    "attributes" : {
                        "POSITION" : 4,
                        "NORMAL" : 5,
                        "TEXCOORD_0" : 6
                    },
                    "indices" : 7,
                    "material" : 1
                }
            ]
        }
    ],
    "textures" : [
        {
            "source" : 0
        }
    ],
    "images" : [
        {
            "mimeType" : "image/jpeg",
            "name" : "iStock-1055113168",
            "uri" : "iStock-1055113168.jpg"
        }
    ],
    "accessors" : [
        {
            "bufferView" : 0,
            "componentType" : 5126,
            "count" : 7280,
            "max" : [
                5.235382556915283,
                0.37771040201187134,
                5.193945407867432
            ],
            "min" : [
                -5.127276420593262,
                -0.37769779562950134,
                -5.168715000152588
            ],
            "type" : "VEC3"
        },
        {
            "bufferView" : 1,
            "componentType" : 5126,
            "count" : 7280,
            "type" : "VEC3"
        },
        {
            "bufferView" : 2,
            "componentType" : 5126,
            "count" : 7280,
            "type" : "VEC2"
        },
        {
            "bufferView" : 3,
            "componentType" : 5123,
            "count" : 41376,
            "type" : "SCALAR"
        },
        {
            "bufferView" : 4,
            "componentType" : 5126,
            "count" : 4193,
            "max" : [
                5.240622043609619,
                0.3689759373664856,
                5.199184894561768
            ],
            "min" : [
                -5.1325154304504395,
                -0.36896342039108276,
                -5.173954486846924
            ],
            "type" : "VEC3"
        },
        {
            "bufferView" : 5,
            "componentType" : 5126,
            "count" : 4193,
            "type" : "VEC3"
        },
        {
            "bufferView" : 6,
            "componentType" : 5126,
            "count" : 4193,
            "type" : "VEC2"
        },
        {
            "bufferView" : 7,
            "componentType" : 5123,
            "count" : 18240,
            "type" : "SCALAR"
        }
    ],
    "bufferViews" : [
        {
            "buffer" : 0,
            "byteLength" : 87360,
            "byteOffset" : 0
        },
        {
            "buffer" : 0,
            "byteLength" : 87360,
            "byteOffset" : 87360
        },
        {
            "buffer" : 0,
            "byteLength" : 58240,
            "byteOffset" : 174720
        },
        {
            "buffer" : 0,
            "byteLength" : 82752,
            "byteOffset" : 232960
        },
        {
            "buffer" : 0,
            "byteLength" : 50316,
            "byteOffset" : 315712
        },
        {
            "buffer" : 0,
            "byteLength" : 50316,
            "byteOffset" : 366028
        },
        {
            "buffer" : 0,
            "byteLength" : 33544,
            "byteOffset" : 416344
        },
        {
            "buffer" : 0,
            "byteLength" : 36480,
            "byteOffset" : 449888
        }
    ],
    "buffers" : [
        {
            "byteLength" : 486368,
            "uri" : "Logo.bin"
        }
    ]
}
