{
    "asset" : {
        "generator" : "Khronos glTF Blender I/O v1.3.48",
        "version" : "2.0"
    },
    "scene" : 0,
    "scenes" : [
        {
            "name" : "Scene",
            "nodes" : [
                0
            ]
        }
    ],
    "nodes" : [
        {
            "mesh" : 0,
            "name" : "005",
            "rotation" : [
                0,
                0.1993679255247116,
                0,
                0.9799246788024902
            ],
            "scale" : [
                0.0010000000474974513,
                0.0010000000474974513,
                0.0010000000474974513
            ],
            "translation" : [
                -8.248188018798828,
                0,
                -22.62432861328125
            ]
        }
    ],
    "materials" : [
        {
            "doubleSided" : true,
            "emissiveFactor" : [
                0,
                0,
                0
            ],
            "name" : "Material #2796",
            "pbrMetallicRoughness" : {
                "baseColorTexture" : {
                    "index" : 0,
                    "texCoord" : 0
                },
                "metallicFactor" : 0,
                "roughnessFactor" : 0.5527864098548889
            }
        }
    ],
    "meshes" : [
        {
            "name" : "Mesh.006",
            "primitives" : [
                {
                    "attributes" : {
                        "POSITION" : 0,
                        "NORMAL" : 1,
                        "TEXCOORD_0" : 2
                    },
                    "indices" : 3,
                    "material" : 0
                }
            ]
        }
    ],
    "textures" : [
        {
            "source" : 0
        }
    ],
    "images" : [
        {
            "mimeType" : "image/jpeg",
            "name" : "iStock-1044136070",
            "uri" : "iStock-1044136070.jpg"
        }
    ],
    "accessors" : [
        {
            "bufferView" : 0,
            "componentType" : 5126,
            "count" : 81606,
            "max" : [
                39736.7578125,
                35180.94921875,
                39736.7578125
            ],
            "min" : [
                -39736.7578125,
                0,
                -39736.7578125
            ],
            "type" : "VEC3"
        },
        {
            "bufferView" : 1,
            "componentType" : 5126,
            "count" : 81606,
            "type" : "VEC3"
        },
        {
            "bufferView" : 2,
            "componentType" : 5126,
            "count" : 81606,
            "type" : "VEC2"
        },
        {
            "bufferView" : 3,
            "componentType" : 5125,
            "count" : 482400,
            "type" : "SCALAR"
        }
    ],
    "bufferViews" : [
        {
            "buffer" : 0,
            "byteLength" : 979272,
            "byteOffset" : 0
        },
        {
            "buffer" : 0,
            "byteLength" : 979272,
            "byteOffset" : 979272
        },
        {
            "buffer" : 0,
            "byteLength" : 652848,
            "byteOffset" : 1958544
        },
        {
            "buffer" : 0,
            "byteLength" : 1929600,
            "byteOffset" : 2611392
        }
    ],
    "buffers" : [
        {
            "byteLength" : 4540992,
            "uri" : "Prim_07.bin"
        }
    ]
}
