<?xml version="1.0" standalone="no"?>
<!DOCTYPE svg PUBLIC "-//W3C//DTD SVG 20010904//EN"
 "http://www.w3.org/TR/2001/REC-SVG-20010904/DTD/svg10.dtd">
<svg version="1.0" xmlns="http://www.w3.org/2000/svg"
 width="700.000000pt" height="700.000000pt" viewBox="0 0 700.000000 700.000000"
 preserveAspectRatio="xMidYMid meet">
<metadata>
Created by potrace 1.14, written by Peter Selinger 2001-2017
</metadata>
<g transform="translate(0.000000,700.000000) scale(0.100000,-0.100000)"
fill="#000000" stroke="none">
<path d="M3350 6985 c-36 -8 -108 -35 -160 -61 l-95 -46 -1486 -1487 -1487
-1486 -46 -95 c-117 -243 -96 -500 58 -713 24 -34 197 -214 383 -400 l339
-338 60 -4 c32 -2 129 -11 214 -21 99 -11 236 -18 380 -18 211 -1 229 1 290
22 131 47 193 102 233 208 l22 59 5 1400 c5 1312 6 1403 22 1428 35 52 34 52
458 52 310 0 400 -3 418 -13 54 -31 52 26 52 -1429 0 -741 -5 -1427 -10 -1523
-17 -329 -93 -527 -275 -719 -181 -191 -439 -292 -817 -321 -73 -5 -142 -10
-153 -10 -23 0 1222 -1252 1320 -1327 211 -161 478 -186 725 -67 l95 46 682
681 c375 375 681 682 680 683 -2 2 -61 -1 -131 -7 -139 -10 -447 6 -676 36
-365 48 -707 145 -791 224 -36 35 -39 42 -39 90 0 64 84 461 108 510 28 58 39
59 370 23 446 -49 625 -62 836 -62 192 0 266 7 360 34 118 35 219 126 248 225
19 66 16 205 -5 267 -28 81 -76 128 -181 178 -99 48 -165 67 -416 120 -538
115 -823 235 -1029 431 -138 132 -220 272 -268 455 -33 126 -42 366 -20 515
65 419 317 727 722 878 200 75 392 107 687 116 l217 6 -662 663 c-715 716
-725 725 -881 777 -101 34 -256 43 -356 20z"/>
<path d="M4915 4685 c-186 -36 -278 -116 -305 -265 -21 -117 2 -225 63 -288
70 -74 154 -104 497 -177 400 -87 674 -176 838 -273 210 -125 368 -301 442
-494 31 -81 66 -244 76 -362 l6 -69 154 154 c232 231 293 344 302 564 5 135
-12 215 -70 335 -40 83 -51 95 -402 447 l-361 362 -160 20 c-304 39 -471 51
-735 56 -210 4 -282 2 -345 -10z"/>
</g>
</svg>
