<svg width="39" height="38" viewBox="0 0 39 38" fill="none" xmlns="http://www.w3.org/2000/svg">
<path d="M36.7973 0H2.20266C1.03654 0 0 0.880795 0 2.13907V35.7351C0 36.8675 0.906977 37.8742 2.20266 37.8742H20.8605V23.2781H15.8073V17.6159H20.8605V13.4636C20.8605 8.55629 23.9701 5.91391 28.3754 5.91391C30.5781 5.91391 32.392 6.03974 32.9103 6.16556V11.3245H29.8007C27.3389 11.3245 26.9502 12.457 26.9502 14.0927V17.7417H32.7807L32.0033 23.404H26.9502V38H36.7973C37.9635 38 39 37.1192 39 35.8609V2.01325C39 0.880795 37.9635 0 36.7973 0Z" fill="#1E30F4"/>
</svg>
