<svg width="38" height="38" viewBox="0 0 38 38" xmlns="http://www.w3.org/2000/svg">
<path d="M19 0C13.8649 0 13.223 9.4374e-09 11.1689 0.126667C9.11485 0.253333 7.83106 0.506667 6.54727 1.01333C5.26349 1.52 4.23649 2.15333 3.20946 3.16667C2.18243 4.18 1.54053 5.32 1.02701 6.58667C0.513498 7.85333 0.256726 9.12 0.128347 11.1467C-3.13443e-05 13.1733 0 13.8067 0 19C0 24.1933 -3.13443e-05 24.8267 0.128347 26.8533C0.256726 28.88 0.513498 30.2733 1.02701 31.4133C1.54053 32.68 2.18243 33.82 3.20946 34.8333C4.23649 35.8467 5.26349 36.48 6.54727 36.9867C7.70268 37.4933 9.11485 37.7467 11.1689 37.8733C13.223 38 13.8649 38 19 38C24.1351 38 24.777 38 26.8311 37.8733C28.8852 37.7467 30.1689 37.4933 31.4527 36.9867C32.7365 36.48 33.7635 35.8467 34.7905 34.8333C35.8176 33.82 36.4595 32.68 36.973 31.4133C37.4865 30.1467 37.7433 28.88 37.8717 26.8533C38 24.8267 38 24.1933 38 19C38 13.8067 38 13.1733 37.8717 11.1467C37.7433 9.12 37.4865 7.72667 36.973 6.58667C36.4595 5.32 35.6892 4.18 34.7905 3.16667C33.8919 2.15333 32.7365 1.52 31.4527 1.01333C30.2973 0.506667 28.8852 0.253333 26.8311 0.126667C24.777 9.4374e-09 24.1351 0 19 0ZM19 3.42C24.0068 3.42 24.6486 3.42 26.5743 3.54667C28.3716 3.67333 29.3987 3.92667 30.0406 4.18C30.9392 4.56 31.5811 4.94 32.223 5.57333C32.8649 6.20667 33.25 6.84 33.6351 7.72667C33.8919 8.36 34.1487 9.37333 34.277 11.2733C34.4054 13.3 34.4054 13.9333 34.4054 19C34.4054 24.0667 34.4054 24.7 34.277 26.7267C34.277 27.9933 34.0203 29.1333 33.6351 30.2733C33.25 31.16 32.8649 31.7933 32.223 32.4267C31.5811 33.06 30.9392 33.5667 30.0406 33.82C29.3987 34.0733 28.3716 34.3267 26.5743 34.4533C24.5203 34.58 24.0068 34.58 19 34.58C13.9932 34.58 13.3513 34.58 11.2973 34.4533C10.1419 34.4533 8.85808 34.2 7.83106 33.82C7.06079 33.5667 6.29054 33.06 5.64865 32.4267C5.00675 31.7933 4.49323 31.0333 4.23647 30.2733C3.85134 29.1333 3.59458 27.9933 3.59458 26.7267C3.4662 24.1933 3.4662 21.66 3.4662 19C3.4662 13.9333 3.4662 13.3 3.59458 11.2733C3.72296 9.37333 3.97972 8.36 4.23647 7.72667C4.62161 6.84 5.00675 6.20667 5.64865 5.57333C6.29054 4.94 6.93241 4.43333 7.83106 4.18C8.47295 3.92667 9.49999 3.67333 11.2973 3.54667C13.3513 3.42 13.8649 3.42 19 3.42Z"/>
<path d="M18.9999 25.3336C15.5337 25.3336 12.7094 22.5469 12.7094 19.0002C12.7094 15.4536 15.5337 12.6669 18.9999 12.6669C22.4662 12.6669 25.2905 15.4536 25.2905 19.0002C25.2905 22.5469 22.4662 25.3336 18.9999 25.3336ZM18.9999 9.24691C13.608 9.24691 9.24316 13.6802 9.24316 19.0002C9.24316 24.3202 13.4797 28.7536 18.9999 28.7536C24.3918 28.7536 28.7567 24.4469 28.7567 19.0002C28.7567 13.5536 24.2635 9.24691 18.9999 9.24691ZM31.3243 8.86691C31.3243 10.1336 30.2972 11.1469 29.0134 11.1469C27.7297 11.1469 26.7027 10.1336 26.7027 8.86691C26.7027 7.60025 27.7297 6.58691 29.0134 6.58691C30.2972 6.58691 31.3243 7.60025 31.3243 8.86691Z"/>
</svg>
