<svg width="70" height="70" viewBox="0 0 70 70" fill="none" xmlns="http://www.w3.org/2000/svg">
<path d="M70.0006 34.9812C70.0006 33.1361 69.2697 31.4447 68.0003 30.1377L61.6148 23.7566C61.4994 23.7566 61.4225 23.7566 61.2686 23.7566C60.9609 23.7566 60.6147 23.7182 60.23 23.6413C58.8837 23.4491 57.4989 23.2953 56.0756 23.18C54.6523 23.0647 53.0367 22.9878 51.2288 22.9878C49.4978 22.9878 48.1899 23.2569 47.3436 23.8335C46.4589 24.4101 46.0742 25.2942 46.0742 26.5628C46.0742 27.1778 46.1512 27.716 46.3435 28.1004C46.5358 28.4848 46.8051 28.8307 47.2282 29.0998C47.6514 29.3689 48.1514 29.5995 48.8823 29.7917C49.5362 29.9839 50.3825 30.1762 51.3826 30.3684C53.0752 30.7143 54.7677 31.1372 56.4603 31.6369C58.1143 32.0982 59.6145 32.7901 60.9224 33.6742C62.2303 34.5199 63.3074 35.7116 64.1152 37.1339C64.8845 38.5177 65.3076 40.3244 65.3461 42.5155L68.0388 39.8247C69.2697 38.5177 70.0006 36.8263 70.0006 34.9812Z" fill="#1E30F4"/>
<path d="M47.3046 55.1236C46.3429 55.0467 45.3428 54.9698 44.2657 54.816C43.1886 54.6623 42.1116 54.5085 41.0345 54.2394C39.9574 53.9703 38.9188 53.7013 37.9571 53.3553C36.957 52.9709 36.4185 52.5865 36.3031 52.2405C36.1877 51.8561 36.1877 51.4333 36.3031 50.8567L37.0339 47.4355C37.2263 46.6282 37.4571 46.1669 37.7648 46.1285C38.0341 46.0516 38.5726 46.0901 39.3804 46.2054C40.1113 46.2823 40.8806 46.3591 41.7654 46.4745C42.6501 46.5898 43.5348 46.6667 44.458 46.7435C45.3812 46.8204 46.3044 46.8973 47.1892 46.9742C48.1124 47.0126 48.9971 47.0511 49.8049 47.0511C51.8437 47.0511 53.3054 46.7435 54.2286 46.0901C55.1518 45.4366 55.6519 44.514 55.6519 43.2455C55.6519 42.5151 55.5365 41.9385 55.3441 41.4772C55.1518 41.0159 54.8056 40.6315 54.344 40.324C53.8824 40.0165 53.3054 39.7474 52.613 39.5167C51.9206 39.2861 51.0743 39.0939 50.0742 38.9017C48.3817 38.5557 46.6891 38.1329 44.9966 37.6332C43.3425 37.1334 41.8423 36.4415 40.5344 35.5958C39.2265 34.7117 38.1495 33.5969 37.3417 32.1746C36.5339 30.7908 36.1107 29.0225 36.1107 26.8699C36.1107 24.9478 36.4569 23.218 37.1109 21.7188C37.8033 20.2197 38.7649 18.9511 39.9959 17.9132C41.2268 16.9138 42.7655 16.145 44.535 15.6068C46.3429 15.0686 48.3047 14.7996 50.4973 14.7996C51.0359 14.7996 51.7283 14.7996 52.613 14.838L39.842 1.9989C38.5341 0.730368 36.8031 0 34.9952 0C33.1488 0 31.4178 0.730368 30.1484 2.03734L1.99066 30.1373C-0.663553 32.8281 -0.663553 37.1719 1.99066 39.8243L8.64542 46.4745C8.83775 46.3976 9.14549 46.3976 9.60709 46.4745C10.6457 46.5898 11.6843 46.7051 12.6844 46.782C13.6846 46.8589 14.6462 46.8973 15.4925 46.8973C16.5696 46.8973 17.4543 46.8204 18.1083 46.5898C18.8007 46.3591 19.3007 46.0516 19.6854 45.6672C20.0701 45.2828 20.3009 44.7831 20.4547 44.2065C20.5701 43.6299 20.6471 43.0148 20.6471 42.3229V16.4909C20.6471 16.1065 20.724 15.7606 20.9163 15.5299C21.1087 15.2608 21.4549 15.1455 21.9549 15.1455H28.8405C29.4175 15.1455 29.7637 15.2993 29.9176 15.6068C30.0714 15.9143 30.1484 16.2219 30.1484 16.5294C30.1484 22.257 30.1484 27.4465 30.1484 32.0209C30.1484 36.5953 30.1484 40.67 30.0714 44.2065C30.0714 47.7046 29.0328 50.3954 26.9556 52.3558C24.9169 54.2779 21.7241 55.2389 17.3774 55.2773L30.1099 68.0011C31.4178 69.3081 33.1103 70 34.9567 70C36.8031 70 38.4957 69.2696 39.8035 68.0011L52.7284 55.0851C51.7283 55.2004 50.6897 55.2773 49.6511 55.2773C49.0356 55.2004 48.2662 55.162 47.3046 55.1236Z" fill="#1E30F4"/>
</svg>
