<svg width="71" height="71" viewBox="0 0 71 71" fill="none" xmlns="http://www.w3.org/2000/svg">
<path d="M70.2902 35.1611C70.2902 33.3065 69.5563 31.6064 68.2816 30.2927L61.8697 23.8787C61.7538 23.8787 61.6765 23.8787 61.522 23.8787C61.213 23.8787 60.8654 23.8401 60.4791 23.7628C59.1272 23.5696 57.7367 23.4151 56.3075 23.2991C54.8783 23.1832 53.256 23.106 51.4406 23.106C49.7024 23.106 48.3891 23.3764 47.5393 23.956C46.6509 24.5356 46.2646 25.4243 46.2646 26.6993C46.2646 27.3175 46.3419 27.8585 46.535 28.2448C46.7282 28.6312 46.9985 28.979 47.4234 29.2494C47.8483 29.5199 48.3505 29.7517 49.0844 29.9449C49.741 30.1381 50.5908 30.3313 51.5951 30.5245C53.2946 30.8722 54.9942 31.2973 56.6938 31.7996C58.3547 32.2632 59.8611 32.9587 61.1744 33.8474C62.4877 34.6974 63.5692 35.8952 64.3804 37.3248C65.1529 38.7158 65.5778 40.5318 65.6164 42.7342L68.3203 40.0295C69.5563 38.7158 70.2902 37.0157 70.2902 35.1611Z" fill="#1E30F4"/>
<path d="M47.5007 55.4073C46.535 55.33 45.5308 55.2527 44.4492 55.0982C43.3677 54.9436 42.2862 54.7891 41.2046 54.5186C40.1231 54.2481 39.0802 53.9777 38.1145 53.6299C37.1102 53.2435 36.5695 52.8572 36.4536 52.5094C36.3377 52.123 36.3377 51.698 36.4536 51.1184L37.1875 47.6796C37.3806 46.8682 37.6124 46.4046 37.9214 46.3659C38.1918 46.2886 38.7325 46.3273 39.5437 46.4432C40.2776 46.5205 41.0501 46.5978 41.9385 46.7137C42.8269 46.8296 43.7153 46.9069 44.6424 46.9841C45.5694 47.0614 46.4964 47.1387 47.3848 47.216C48.3119 47.2546 49.2003 47.2932 50.0114 47.2932C52.0586 47.2932 53.5264 46.9841 54.4534 46.3273C55.3805 45.6704 55.8826 44.7431 55.8826 43.4681C55.8826 42.7339 55.7667 42.1544 55.5736 41.6907C55.3805 41.227 55.0328 40.8407 54.5693 40.5315C54.1058 40.2224 53.5264 39.952 52.8311 39.7201C52.1359 39.4883 51.2861 39.2951 50.2818 39.1019C48.5822 38.7542 46.8827 38.3292 45.1831 37.8269C43.5222 37.3246 42.0158 36.6291 40.7025 35.779C39.3892 34.8904 38.3076 33.7698 37.4965 32.3402C36.6853 30.9493 36.2605 29.1719 36.2605 27.0082C36.2605 25.0762 36.6081 23.3375 37.2647 21.8306C37.96 20.3237 38.9257 19.0487 40.1617 18.0054C41.3978 17.0008 42.9428 16.2281 44.7196 15.6871C46.5351 15.1462 48.505 14.8757 50.7067 14.8757C51.2475 14.8757 51.9427 14.8757 52.8311 14.9144L40.0072 2.00919C38.6939 0.734127 36.9557 0 35.1403 0C33.2862 0 31.548 0.734127 30.2734 2.04783L1.99891 30.2924C-0.666304 32.9971 -0.666304 37.3632 1.99891 40.0292L8.68126 46.7137C8.8744 46.6364 9.18341 46.6364 9.64692 46.7137C10.6898 46.8296 11.7327 46.9455 12.737 47.0228C13.7413 47.1 14.707 47.1387 15.5567 47.1387C16.6383 47.1387 17.5267 47.0614 18.1833 46.8296C18.8786 46.5978 19.3808 46.2886 19.767 45.9023C20.1533 45.5159 20.385 45.0136 20.5395 44.434C20.6554 43.8544 20.7327 43.2362 20.7327 42.5407V16.5758C20.7327 16.1894 20.8099 15.8417 21.0031 15.6099C21.1962 15.3394 21.5438 15.2235 22.046 15.2235H28.9601C29.5395 15.2235 29.8871 15.378 30.0416 15.6871C30.1961 15.9962 30.2734 16.3053 30.2734 16.6145C30.2734 22.3716 30.2734 27.5877 30.2734 32.1857C30.2734 36.7836 30.2734 40.8793 30.1961 44.434C30.1961 47.9501 29.1532 50.6548 27.0674 52.6253C25.0202 54.5572 21.8142 55.5232 17.4494 55.5618L30.2347 68.3511C31.548 69.6648 33.2476 70.3603 35.1017 70.3603C36.9557 70.3603 38.6553 69.6262 39.9686 68.3511L52.947 55.3686C51.9427 55.4846 50.8998 55.5618 49.8569 55.5618C49.2389 55.4846 48.4664 55.4459 47.5007 55.4073Z" fill="#1E30F4"/>
</svg>
