<svg width="70" height="70" viewBox="0 0 70 70" fill="none" xmlns="http://www.w3.org/2000/svg">
<path d="M67.2537 30.8605L67.2542 30.861C68.3805 31.9872 69 33.4275 69 35.0385C69 36.5869 68.4088 38.0615 67.2927 39.1775L39.1456 67.2824C39.144 67.2839 39.1424 67.2854 39.1408 67.287C38.0094 68.3828 36.5646 69 34.9952 69C33.4109 69 31.9736 68.4109 30.8554 67.2928L2.69772 39.139C0.437772 36.8794 0.429625 33.1646 2.7001 30.8586L30.8549 2.7461L30.8605 2.74059L30.8659 2.73499C31.9453 1.62301 33.4168 1 34.9952 1C36.5289 1 38.011 1.61915 39.1403 2.71248L67.2537 30.8605Z" stroke="#1E30F4" stroke-width="2"/>
<path d="M35.7071 22.2929C35.3166 21.9024 34.6834 21.9024 34.2929 22.2929L27.9289 28.6569C27.5384 29.0474 27.5384 29.6805 27.9289 30.0711C28.3195 30.4616 28.9526 30.4616 29.3431 30.0711L35 24.4142L40.6569 30.0711C41.0474 30.4616 41.6805 30.4616 42.0711 30.0711C42.4616 29.6805 42.4616 29.0474 42.0711 28.6569L35.7071 22.2929ZM36 47L36 23L34 23L34 47L36 47Z" fill="#1E30F4"/>
</svg>
