{
    "asset" : {
        "generator" : "Khronos glTF Blender I/O v1.3.48",
        "version" : "2.0"
    },
    "scene" : 0,
    "scenes" : [
        {
            "name" : "Scene",
            "nodes" : [
                0
            ]
        }
    ],
    "nodes" : [
        {
            "mesh" : 0,
            "name" : "Hose001",
            "rotation" : [
                0.2588190734386444,
                0,
                0,
                0.9659258127212524
            ],
            "scale" : [
                0.000786844058893621,
                0.0007868440006859601,
                0.0007868440006859601
            ],
            "translation" : [
                -8.40823745727539,
                0,
                -50.806396484375
            ]
        }
    ],
    "materials" : [
        {
            "doubleSided" : true,
            "emissiveFactor" : [
                0,
                0,
                0
            ],
            "name" : "Material #2801",
            "pbrMetallicRoughness" : {
                "baseColorTexture" : {
                    "index" : 0,
                    "texCoord" : 0
                },
                "metallicFactor" : 0,
                "roughnessFactor" : 0.6346045732498169
            }
        }
    ],
    "meshes" : [
        {
            "name" : "Mesh.001",
            "primitives" : [
                {
                    "attributes" : {
                        "POSITION" : 0,
                        "NORMAL" : 1,
                        "TEXCOORD_0" : 2
                    },
                    "indices" : 3,
                    "material" : 0
                }
            ]
        }
    ],
    "textures" : [
        {
            "source" : 0
        }
    ],
    "images" : [
        {
            "mimeType" : "image/jpeg",
            "name" : "iStock-953156898",
            "uri" : "iStock-953156898.jpg"
        }
    ],
    "accessors" : [
        {
            "bufferView" : 0,
            "componentType" : 5126,
            "count" : 15190,
            "max" : [
                38814.25,
                64598.2578125,
                38809.16015625
            ],
            "min" : [
                -38793.89453125,
                0,
                -38809.16015625
            ],
            "type" : "VEC3"
        },
        {
            "bufferView" : 1,
            "componentType" : 5126,
            "count" : 15190,
            "type" : "VEC3"
        },
        {
            "bufferView" : 2,
            "componentType" : 5126,
            "count" : 15190,
            "type" : "VEC2"
        },
        {
            "bufferView" : 3,
            "componentType" : 5123,
            "count" : 89046,
            "type" : "SCALAR"
        }
    ],
    "bufferViews" : [
        {
            "buffer" : 0,
            "byteLength" : 182280,
            "byteOffset" : 0
        },
        {
            "buffer" : 0,
            "byteLength" : 182280,
            "byteOffset" : 182280
        },
        {
            "buffer" : 0,
            "byteLength" : 121520,
            "byteOffset" : 364560
        },
        {
            "buffer" : 0,
            "byteLength" : 178092,
            "byteOffset" : 486080
        }
    ],
    "buffers" : [
        {
            "byteLength" : 664172,
            "uri" : "Prim_02.bin"
        }
    ]
}
